<svg xmlns="http://www.w3.org/2000/svg" width="266.1232mm" height="394.1164mm" viewBox="0 0 754.3651 1117.1804"><defs><style>.cls-1,.cls-10,.cls-11,.cls-2,.cls-3,.cls-4,.cls-5,.cls-6,.cls-7,.cls-8,.cls-9{fill:none;stroke:#fff;stroke-miterlimit:10;}.cls-1{stroke-width:3px;}.cls-10,.cls-2,.cls-3,.cls-4,.cls-5,.cls-6,.cls-7,.cls-8,.cls-9{stroke-linecap:round;stroke-width:4px;}.cls-3{stroke-dasharray:13.8282 13.8282;}.cls-4{stroke-dasharray:12.359 12.359;}.cls-5{stroke-dasharray:16.3715 16.3715;}.cls-6{stroke-dasharray:12.9793 12.9793;}.cls-7{stroke-dasharray:12.726 12.726;}.cls-8{stroke-dasharray:13.3751 13.3751;}.cls-9{stroke-dasharray:13.4763 13.4763;}.cls-10{stroke-dasharray:11.4005 11.4005;}.cls-11{stroke-width:0.5px;}</style></defs><g id="Layer_2" data-name="Layer 2"><g id="graveren_tekst" data-name="graveren tekst"><path id="NL-NH" class="cls-1" d="M379.0437,362.9952l-.7113-.2092.4184-2.1756ZM374.316,31.5989,373.6466,33.9l-1.7154-.3347-6.5685,5.2715-1.2134,2.7194-.3765,7.6563,6.15-1.0877,17.07,32.5079,1.6735.8786,2.4684,7.8655,22.1321,43.4275-6.3593,76.4793,5.1043.3347,2.8031,4.895,3.64,15.1871,9.79,8.9533,2.2593,3.4725,6.4848,6.443,4.895,1.6317,7.4052.1255,5.8992-3.9328,2.3847-2.0919,8.1584-13.43,8.6186-.2092,10.0829,1.297,2.8449,1.6316,4.1838.7531,2.301,2.7194,4.8113,2.3011,3.7236.1255,1.6735-1.4225,1.5061.7531,7.9491-2.3848,1.799,2.0919-6.2756,1.4225-.2092.8786,8.9951-.5439,4.4348,3.8072,3.3052,1.297,2.5939,9.2879-1.9245,2.51,1.4644,3.0542-1.3806,2.9286.92,6.443,1.6735,1.0877-.46,4.56,8.5349,6.5267,4.0164.3347.4184,1.0877-.795,1.0878-4.2256-1.5062-1.4644,1.4225.544,4.3511-3.3889,1.9664-1.5061,2.3847-4.6858.2093-.5858.6694,1.2551,1.0877-3.3888.6694-.2092,1.0878,3.3052,2.7194-1.004,1.6317-1.046-.9623-1.8408.1256-4.8951,4.2674-8.7859,1.4225-1.2134.9622-1.7989-.6694-4.644,1.0878-1.6735,4.56-.46,8.7022-4.77,17.3208-3.3052,4.895-15.4381,8.6186-4.2256,4.1419-2.05,4.895-5.5644.1255-6.1083,1.4225-4.7695,2.7194L442.8463,374.96l-9.7482.9623-11.38,2.7194-2.1755-3.3889,1.255-4.56-3.9746-5.9828-8.9951.6694-7.4889-6.7359-3.5144-4.895-9.2043,2.72-4.8951,5.02-1.7154-1.4225.8786-1.4225-1.9245,1.2133-3.7654-.3347-.5439,2.5939,1.0041,1.4225-2.05-.6694.5858-3.8073-3.0542-3.6817-3.8909.1255-4.8532,5.23-4.6858.7531-2.3848,2.301-4.4347,2.1756-1.8409,4.2256-.3347,6.7359,2.3848,13.388-.5439,3.1378,1.2551,1.7572-.5858,2.3011,1.2133,2.8449-1.799,4.2256,1.8409,5.3134,3.18,5.3134-.3346,2.1755,3.3888,9.6645-1.0459,6.945,7.991,7.489.7113,4.77,7.28,13.0533-.46,6.4012,3.0542,3.2633,3.9747,8.4512.5858,4.895,2.8449,4.9787,2.9287.1255-.7113,4.2257,4.5184,3.6817,2.7613,9.2044-6.61,11.38-2.05,1.2133-1.13,2.1756-2.2593.6694-2.3847-.9623-1.9664,2.5939-.46,5.9827.795,5.4389,4.8532,5.6481.46,1.6317-.8786,3.0542-6.82.7531-4.56-1.297-7.991,4.0164-2.9287-1.7154,2.301,5.5226,2.4684.9623-.3346,1.4225,1.0459.7531,3.3052-4.4348,2.7613-.1255,1.7154,1.2133-3.3888,6.9451-.3766,6.61,1.59,4.3511-1.13,4.4348,1.13,1.4225h4.0164l2.8449,1.2969,4.3093-.8785,7.6981,1.9663,5.8155-.3346,1.0459-1.4225,1.2551-13.6391,1.4644-3.4725,2.5939-2.8031,1.5061-.3347.5439-1.4225-1.0041-5.6481,1.0041-2.3847-6.1083-23.22.7949-1.0878,1.2551.1255,6.3593,21.9229,5.1461,4.7695.5439,2.1756,7.8236.2091,4.5184-.8786,2.845.5439.5439,1.297-6.61,2.51-3.4308,3.4725-5.6481.753-4.56,4.77h-4.895l-1.9664,13.43-4.5184,6.9451-1.046,1.4225h-1.8408l-.3765-1.4225.92-1.8409-.8786-.5439-1.9245,2.8032-2.9287,1.5061-1.6734,4.3512-.8786,6.2756-2.3848,3.0123-1.3806,4.56-6.443-1.2969-2.2593.8785-1.5061.9623-3.5562,6.4848-5.69,2.2593-3.5143,3.8909-5.1042,14.2666-3.0542,1.0878-1.7154,2.594h-3.3888l-.7949,1.0878,1.799,2.8032-1.13,2.9286.3346,1.7154-1.8408,3.1378-1.5061.5439-3.9747-2.4684-2.1337-3.3469-4.6858.8785-7.1542,4.1-5.8155-6.4848-1.4643.3346-3.7654-3.7653-2.9705,3.4724,1.9664,5.1879,4.77.6694,5.8991,4.8532-.7113,1.0878-2.7613.3346.5857,2.1755-2.1756,2.2593-.0837-3.7236-1.9245-.753h-1.9664l-1.59,3.0123,2.9286,2.9287,4.4348,1.2969,2.4685,3.5562,3.9746,1.0879,1.13,3.1378,3.5562,2.2593,1.9664,3.4724,3.4307,3.347,3.7236,1.5061,6.1083.4184,3.7236-3.6817,5.4389-.6695,4.6858,4.56-.5858,3.8909-3.5144,1.8409v2.1755l1.8409,1.8409,3.0959-.3347-1.2133-2.4684.5439-.4184,5.941,2.2593,9.9993-2.05,6.82,1.1714,5.3552-3.8909,9.539,1.4225,6.694,4.2257,5.8155,5.1878,7.0706,1.0878,4.9787,2.4684,3.18-.8785,2.1338,1.7153h0l4.8532,6.0665,4.5184,2.594,46.0214-7.8656,40.7081,10.25,19.4545,12.8442,15.94,15.7728h0L539.7426,750.412l-19.329-3.4724-6.2756,5.7317-3.8909-1.7153-10.5849,21.7974-14.5177,12.9278-.4184,24.6006L483.0526,818.9l-5.23,12.3L464.77,855.4247H453.0968l-33.6375-2.4685-1.1715-4.7276,7.489-3.8909,4.77-4.3093,3.5143-6.2338-8.3257-16.6095-7.9491-4.4348-2.05,3.9746-28.4078.7531-8.4931-2.3848-13.43-6.5686.0836-6.15-2.7194-3.0123,13.8482-6.2338-9.12-8.9533.2091-3.7654-2.5939-8.2-3.5144,3.1378-2.1755-.7531-1.0459-2.2592.2091-4.6439-2.301-2.3848-.0836-3.9747-3.0542-6.3592h4.6858l2.1337-2.9287,5.0206-2.05,5.1042-.1255.7113-4.77,5.3552-2.8032,1.9245-.4184.92.8786v2.3848l2.1755,1.0878L380.3,741.166l-2.301-3.2215-2.3848-.2091-3.18,2.2592-1.4643-1.5061-5.1461,6.15-6.2757-5.2716-2.97.8785-1.8409,4.9787-2.1337-1.8408-1.6735,4.6439-2.4684.6275-.8786,2.8032h-2.9287l-5.69-13.3881-4.1-1.7154-6.9032-.2091-3.3888.9623-5.3134,3.7654-3.7236,6.15-1.9663,1.0879-10.7942-1.7154-2.51.753-5.3134-2.9286-5.02,2.1755.8786,9.3716-3.3051,1.1714-2.1756,1.9245-.7949,3.1378-3.4307.8786-2.1337,3.8909.0837,3.1378-2.845,2.3848-17.6973-.8786-2.2592.9623-8.4093.4184-2.7195,1.0879-5.1042,4.2256-1.6734,1.6317-3.18,6.6941-10.5431,8.4094-12.4676,5.7317-3.3052-.6275-7.0287.6275h0l-6.9032-1.5061-6.4848,2.8032-3.8491,5.6063-5.7736,4.5184-6.1083,1.3806-8.0747,5.1878-5.146,6.4848-3.849-2.9287.7949-1.9245-.3347-3.8909-2.3848-5.2716.92-12.3-12.9278-2.05-6.2756,2.594-4.8532,5.0623-.8786-.6276-1.6735,1.0879-12.5931.753L93.9626,818.0636l-13.5554.9623-9.4135-1.1714L61.12,813.9636l-7.0287,2.3848-9.7482-2.2593-4.5185-3.6817-.6694-5.4807.3765-2.05,5.439-6.7777,5.23-27.4037L48.9871,760.16l13.0952-13.2626,6.15-13.3881.0836-2.7194,4.3511-11.4635,5.3553-7.7817-16.2331-6.9032-1.799.1255-8.9532,2.4684-4.1838,7.7817L1.92,694.7262h0l36.7335-93.1307L46.1421,579.84l2.6358-11.38.92-13.89,3.3889-4.644-2.51-7.1542,5.23-11.2543,7.6145-21.2535,8.0746-39.4948,8.87-54.9747,4.1838-41.6285,5.146-33.9722.251-7.8236,3.64-24.6006L99.82,252.2928l5.9409-28.0313,3.8491-10.041,5.69-11.0451L126.47,165.27l15.3544-61.334L145.2555,88.08l2.9286-59.1585,2.2592-9.5389,4.7695-9.2043,3.64-4.4767,2.3011-1.0041L170.7346,2.94l3.7235,1.0878,5.146-2.51,10.7105.5439-.5439,2.4266,2.3848-1.297,1.7989,1.0878-.46,1.2132-1.5061-.8786L190.6492,7.04l.7113,3.0542,1.6734,1.8826,1.3807.1255.46,2.6358h.7112l4.8532-1.2969-.5439-3.18,2.845-2.1755-.8787-1.8827-2.0082,1.4224-1.1714-3.18,6.443-1.297,1.9245,4.393-.251,4.1838-6.443,13.8064-1.8408,9.0788,1.0459,1.0041.251,2.51h1.7154l.46,3.18,7.3634,16.5258,1.8409,2.51,43.302,24.8516,21.5046-5.69,7.4889-4.9368,13.3043-5.5645-.6694-1.9663,2.3848-.2092L306.9161,56.2l1.7989-3.9327,1.046-5.8155,6.2756-5.6062,8.4931-2.0919,4.3511.1255,9.8737-4.6021,7.6981,2.1755,5.5643-1.0877,4.77-2.3011,1.7154,1.6317,1.1714-.4184,2.6358,2.7194,7.489-5.6063-.8786-1.2969,1.0041-1.297,4.3929,2.8031Z"/><path id="NL-UT" class="cls-1" d="M201.9447,800.4916l7.0287-.6694,3.3051.6694,12.4258-5.7317,10.5431-8.4094,3.18-6.6941,1.6317-1.6317,5.1042-4.1838,2.7194-1.0878,8.4093-.4184,2.2592-.9623,17.6555.8368,2.845-2.3848-.0418-3.0959,2.0918-3.8909,3.4726-.8786.7949-3.1378,2.1756-1.9245,3.3051-1.1714-.8786-9.4135,5.0624-2.1338,5.2715,2.8868,2.51-.753,10.7941,1.7153,2.0082-1.0459,3.6818-6.15,5.3134-3.8073,3.3888-.9623,6.8615.2091,4.1,1.7573,5.69,13.3462h2.9286l.8786-2.8032,2.4265-.6275L352.56,743.3l2.0919,1.8408,1.8827-4.9787,2.97-.8368,6.2756,5.2716,5.1879-6.15,1.4224,1.5061,3.18-2.2593,2.3848.2091,2.3429,3.2215.8368,5.1042L378.96,745.14v-2.3848l-.92-.8786-1.9245.46L370.76,745.14l-.7531,4.7277-5.0623.1255-5.0623,2.05L357.79,754.972h-4.7277l3.0542,6.3592.0836,3.9747,2.301,2.3847-.2091,4.644,1.0878,2.2592,2.1755.7531,3.5144-3.1378,2.552,8.2-.1674,3.7654,9.1206,8.9533-13.8482,6.2757,2.7194,3.0123-.0419,6.15,13.43,6.5686,8.4511,2.3847,28.4079-.753,2.05-4.0164,7.9491,4.4348,8.3675,16.61-3.5143,6.2337-4.77,4.3093-7.489,3.8909,1.1715,4.7277,33.6375,2.4684h11.6728L477.8221,831.2l5.23-12.3,1.6318-8.6185.4184-24.6006,14.4758-12.9278,10.5849-21.7974,3.9327,1.7153,6.2757-5.69,19.329,3.4307,19.7892-14.1412h0l33.6376,33.261,12.8442,11.0034h0l-7.6145,32.7588,27.069,22.09.2091,6.3593-1.7153,8.2839-2.72,2.2593-4.9787-1.5061-2.8449,2.2592,2.1755,2.1756,1.0878,6.443-.5439,3.8909,10.5431,3.7653,25.27,3.4308.3346,1.6317,4.3093,1.8409-.4184,2.2592,1.8827.6276-.92,7.2379,5.3552,2.3429,6.82.2092-1.2551,6.2756.46,1.59,8.9114,4.4348-3.2215,6.2337-7.2379,1.046-.92,6.0246-1.506-.2929,3.0542,3.7654,3.2214,1.0459-.1255,3.6818,2.7613,1.5061v1.506l-13.6809-1.4224,4.6439,3.0123-.3346,2.05-5.7736,5.6062.8785,11.1708-9.5389,6.0246-7.1543,9.1206,1.2551,1.4224,2.6358.6276.4184,2.05,11.38,6.7777,5.6062-1.9664,7.7818-.0836,1.7153-5.8155,5.8573-.4184,5.5226,1.1714,6.3593-6.7777-4.393-1.799,2.1338-3.7653,5.3552,1.59.46-2.1337.3346-2.8032-3.5562-.9623,1.8409-4.3093-1.6735-1.3806-.0419-1.5061-2.0083-.6694-.46-2.7613,5.8991-1.5061,1.7154,2.0083,1.4225-.2929-.3347-2.05,4.4767-.67,1.13,6.15-1.255,3.0123,2.51,1.7154.544,7.74,2.1755,2.5939,1.8408.0836,1.0879,8.4094-1.9245,7.9491.7113,1.4644-1.6318,15.8146-2.3429,6.3176,5.0624,2.1755-.8786,7.4052,12.5932,4.7277-.8786,18.7851-3.64.0836,6.4848,7.0706,1.59-1.7154,2.05,2.2593,1.13,1.8408.5858,6.8615,2.7194,2.8868,5.3133,4.9368,4.1419.8368,2.845,4.4348,1.4643,8.7859,6.6941,7.9074-.7113,4.5184-1.7154,2.6777.1255,2.8868,2.8868,6.987-.0419,6.4011-3.9327.9623.2929,5.4808-3.8073-2.1338-6.6521,5.8991-11.2125-7.5307-17.1535-4.3929-5.1461-2.2174-4.7695-3.7654-4.77-7.6145-21.379-7.9073-4.3511-3.9747-9.037-5.4807-3.8072-.9623-11.6728,1.2969-18.0739-3.5562-4.3511,2.3848-8.7022,7.3635-20.7934,7.9491-6.3175.4184-9.6226-2.05-5.6062.8786-5.23,3.64-6.5686,8.4512-8.0746,4.1-5.6481-.3346-10.25-6.8615-10.7105-1.3806-8.4094-2.2592-7.3634-3.9747-7.74-8.0328-5.23-3.096-5.02,1.297-2.845,3.5143-5.8155,11.2544-4.7276,4.1837-3.5563.8786-8.493-1.8409-9.0788-5.8991h0l-4.2674-2.8032L441.13,1079.13l-4.77-2.8032-3.3052-6.9451-1.4643-11.0452-1.7154-3.2215-8.6185-5.0623-6.61-2.4684-5.0206-1.59-7.5726-.4184-6.987,2.0082-12.6768,6.2338-2.301,3.4307-11.7145,9.2043-4.3093,4.7277-1.7153,5.1461-3.4307,4.7277-6.6941.753-10.2084-8.0329-5.0206-.9623-2.6358.5021-6.0246,3.5562-8.6186,12.2166-3.7653,2.594-5.0624-.3347-9.9992-3.9746h-3.6817L292.69,1092.1l-4.4348,10.5849-5.0205,6.3175-12.9278,3.347-6.15.5439-6.8614,2.3429-5.397-21.128-4.6022-3.7236-1.6735-5.8155-4.9786-3.0959-7.7819-8.9115-6.9032-9.7481,2.594-1.1715-4.2256-5.7736-5.0624-1.7153-5.8573-7.8237,26.5251-6.5685.5857-1.3806-5.397-10.4175-4.2675,2.2592-10.9614-.4184-4.0583,2.8868-7.4053.7531-1.8408-6.0247V1023.57l5.8154-4.1838-1.13-8.0746,4.77-3.5143,8.5348-13.3044,10.92-8.2839,13.8482-5.0623,3.3471-6.8615-20.5842.2092-6.5266,1.6317.251-5.7317-3.7236-4.4767-1.1714-5.2716-1.13-16.3585.3766-9.7482-22.6342-16.2749,1.0877-4.3929,8.1165-3.64,1.3389-8.6186,3.7653-5.4807,5.3134-2.2593,6.192-1.2133,3.8491-2.0083,1.5479,6.3176,3.6818,2.9286,12.9278,1.7154,4.77-.753.3347-1.1715,2.97-1.4225-2.4684-16.9024,13.5972-5.2716.1674-1.5061L242.5681,859.19l-9.9992-3.5563-18.9107-20.8769-1.3388-3.347-4.4767.2091-1.0877-5.69.1255-10.5849-4.6858-7.74Z"/><line class="cls-2" x1="147.7439" y1="614.2933" x2="142.4568" y2="618.0744"/><polyline class="cls-3" points="131.209 626.118 121.138 633.32 117.733 640.957"/><polyline class="cls-2" points="114.917 647.272 112.27 653.208 118.301 655.633"/><polyline class="cls-4" points="129.768 660.243 155.979 670.78 192.086 670.78 268.884 658.51"/><line class="cls-2" x1="274.9862" y1="657.5354" x2="281.4048" y2="656.5099"/><line class="cls-2" x1="381.8238" y1="977.7803" x2="388.3238" y2="977.7803"/><polyline class="cls-5" points="404.695 977.78 410.98 977.78 429.253 977.78"/><polyline class="cls-2" points="437.438 977.78 443.938 977.78 443.938 971.28"/><polyline class="cls-2" points="443.938 966.47 443.938 959.97 438.3 956.737"/><polyline class="cls-6" points="427.04 950.28 412.881 942.16 350.133 892.921 342.424 840.538 336.189 783.966 305.765 745.203 297.56 722.826"/><polyline class="cls-2" points="295.326 716.733 293.089 710.63 299.355 708.904"/><polyline class="cls-2" points="305.837 707.118 312.103 705.392 307.093 701.251"/><polyline class="cls-7" points="297.283 693.144 293.089 689.677 283.772 663.12 280.894 625.66 272.898 602.725"/><polyline class="cls-2" points="270.803 596.717 268.663 590.579 262.545 588.384"/><polyline class="cls-8" points="249.956 583.866 213.984 570.957 155.235 550.849"/><polyline class="cls-2" points="148.908 548.684 142.758 546.579 141.183 540.272"/><polyline class="cls-9" points="137.919 527.197 133.405 509.119 139.16 458.578 165.78 394.361 177.292 378.307 181.609 347.982 202.938 249.938"/><polyline class="cls-2" points="204.371 243.354 205.753 237.003 212.111 235.651"/><polyline class="cls-10" points="223.262 233.281 244.368 228.796 262.692 228.796"/><line class="cls-2" x1="268.3927" y1="228.7961" x2="274.8927" y2="228.7961"/><path class="cls-11" d="M294.0625,232.6455h-1.4151l-3.2607-4.7305-1.0186,1.1075v3.623H287.247V223h1.1211v4.6211L292.6474,223h1.292l-3.7666,4.0742Z"/><path class="cls-11" d="M298.417,225.3516a2.9055,2.9055,0,0,1,2.3379,1.0254,4.0378,4.0378,0,0,1,.8681,2.7,4.0869,4.0869,0,0,1-.8681,2.7207,3.1711,3.1711,0,0,1-4.6792.0034,4.0927,4.0927,0,0,1-.8648-2.7241,4.0353,4.0353,0,0,1,.8682-2.7037A2.91,2.91,0,0,1,298.417,225.3516Zm0,6.5488a1.76,1.76,0,0,0,1.5312-.82,3.89,3.89,0,0,0,.0068-4.0127,1.8952,1.8952,0,0,0-3.0761-.01,3.97,3.97,0,0,0,.0068,4.0332A1.7553,1.7553,0,0,0,298.417,231.9Z"/><path class="cls-11" d="M309.0605,232.6455h-2.9121v-8.7226H304.289V223h2.9258v8.7227h1.8457Z"/><path class="cls-11" d="M317.9814,232.6455H316.915v-4.5664a2.4225,2.4225,0,0,0-.3042-1.3774,1.09,1.09,0,0,0-.9536-.4273,3.06,3.06,0,0,0-2.0986,1.2168v5.1543h-1.0664V223h1.0664v3.5684a3.335,3.335,0,0,1,2.42-1.2168q2.0031,0,2.0029,2.42Z"/><path class="cls-11" d="M323.6211,225.3516a2.9055,2.9055,0,0,1,2.3379,1.0254,4.0378,4.0378,0,0,1,.8681,2.7,4.0869,4.0869,0,0,1-.8681,2.7207,3.1711,3.1711,0,0,1-4.6792.0034,4.0927,4.0927,0,0,1-.8648-2.7241,4.0353,4.0353,0,0,1,.8682-2.7037A2.91,2.91,0,0,1,323.6211,225.3516Zm0,6.5488a1.76,1.76,0,0,0,1.5312-.82,3.89,3.89,0,0,0,.0068-4.0127,1.8952,1.8952,0,0,0-3.0761-.01,3.97,3.97,0,0,0,.0068,4.0332A1.7553,1.7553,0,0,0,323.6211,231.9Z"/><path class="cls-11" d="M334.8935,225.7139l-.4306,1.0254a3.1316,3.1316,0,0,0-1.2168-.3077,1.7752,1.7752,0,0,0-.9229.27,2.96,2.96,0,0,0-.8306.7724,2.7681,2.7681,0,0,0-.3793.564v4.6074h-1.06v-7.123h1.06v1.4423a2.5247,2.5247,0,0,1,2.2148-1.6132A3.5917,3.5917,0,0,1,334.8935,225.7139Z"/><path class="cls-11" d="M343.1855,232.6455h-1.0664v-4.5664a2.4225,2.4225,0,0,0-.3042-1.3774,1.09,1.09,0,0,0-.9536-.4273,3.06,3.06,0,0,0-2.0986,1.2168v5.1543h-1.0664v-7.123h1.0664v1.0459a3.335,3.335,0,0,1,2.42-1.2168q2.0031,0,2.0029,2.42Z"/><path class="cls-11" d="M163.0732,608.0664a5.0788,5.0788,0,0,0-1.6338-.2939,2.3657,2.3657,0,0,0-1.4253.4,1.3225,1.3225,0,0,0-.55,1.1377q0,.8758,1.4424,1.538,1.0665.4923,1.4116.6836a3.5776,3.5776,0,0,1,.7007.5264,2.6068,2.6068,0,0,1,.5708.79,2.3557,2.3557,0,0,1,.2154,1.0215,2.6655,2.6655,0,0,1-.9468,2.1846,3.4161,3.4161,0,0,1-2.232.7754,4.6218,4.6218,0,0,1-2.1806-.4922l.2324-.9639a4.7747,4.7747,0,0,0,1.9209.4991,2.2772,2.2772,0,0,0,1.5347-.4952,1.7028,1.7028,0,0,0,.5776-1.3642,1.6384,1.6384,0,0,0-.376-1.09,4.0568,4.0568,0,0,0-1.3877-.9131q-1.0392-.4775-1.3432-.6523a2.8263,2.8263,0,0,1-.605-.4824,2.2388,2.2388,0,0,1-.4649-.69,2.0954,2.0954,0,0,1-.164-.834,2.2321,2.2321,0,0,1,.8613-1.8662,3.4483,3.4483,0,0,1,2.1807-.67,6.4642,6.4642,0,0,1,1.914.294Z"/><path class="cls-11" d="M167.7558,610.4453a2.5729,2.5729,0,0,1,.96-.793,2.8318,2.8318,0,0,1,1.2749-.3007,2.222,2.222,0,0,1,1.9311,1.0156,4.5571,4.5571,0,0,1,.7007,2.6416,4.7853,4.7853,0,0,1-.7348,2.7314,2.2754,2.2754,0,0,1-1.9791,1.09,2.4553,2.4553,0,0,1-1.2407-.3311,2.52,2.52,0,0,1-.9126-.8789v3.8418h-1.0664v-9.9394h1.0664Zm0,1.06v2.96a2.9188,2.9188,0,0,0,.8135,1.0049,1.6922,1.6922,0,0,0,1.06.4034A1.5545,1.5545,0,0,0,171,615.0664a3.6824,3.6824,0,0,0,.5093-2.0029,3.7489,3.7489,0,0,0-.4854-2.01,1.5161,1.5161,0,0,0-1.3535-.7793A2.262,2.262,0,0,0,167.7558,611.5049Z"/><path class="cls-11" d="M180.7578,616.6455h-1.06a4.1107,4.1107,0,0,1-.13-1.1484,2.8459,2.8459,0,0,1-2.4746,1.333,1.9878,1.9878,0,0,1-1.3979-.5635,1.8971,1.8971,0,0,1-.605-1.4531,1.9744,1.9744,0,0,1,.2119-.93,1.8612,1.8612,0,0,1,.6221-.68,3.3339,3.3339,0,0,1,.998-.4375,7.4986,7.4986,0,0,1,1.3946-.2227l1.1962-.0957v-.3418q0-1.831-1.7089-1.832a3.93,3.93,0,0,0-1.022.1748,5.272,5.272,0,0,0-1.063.4131l-.28-.7656a5.9991,5.9991,0,0,1,2.7071-.7451q2.4338,0,2.4335,2.5771v3.0625A6.9552,6.9552,0,0,0,180.7578,616.6455Zm-1.2442-2.1123v-1.292q-1.4421.13-1.979.2432a2.2264,2.2264,0,0,0-.93.42,1.0026,1.0026,0,0,0-.3931.834.9773.9773,0,0,0,.3349.7724,1.2465,1.2465,0,0,0,.8545.294,2.1626,2.1626,0,0,0,1.128-.3379A3.3221,3.3221,0,0,0,179.5136,614.5332Z"/><path class="cls-11" d="M189.1591,616.6455H188.1a4.1107,4.1107,0,0,1-.13-1.1484,2.8461,2.8461,0,0,1-2.4746,1.333,1.9882,1.9882,0,0,1-1.398-.5635,1.897,1.897,0,0,1-.6049-1.4531,1.9744,1.9744,0,0,1,.2119-.93,1.8618,1.8618,0,0,1,.622-.68,3.3357,3.3357,0,0,1,.9981-.4375,7.4975,7.4975,0,0,1,1.3945-.2227l1.1963-.0957v-.3418q0-1.831-1.709-1.832a3.9294,3.9294,0,0,0-1.0219.1748,5.272,5.272,0,0,0-1.063.4131l-.28-.7656a5.9988,5.9988,0,0,1,2.707-.7451q2.4339,0,2.4336,2.5771v3.0625A6.9607,6.9607,0,0,0,189.1591,616.6455Zm-1.2441-2.1123v-1.292q-1.4421.13-1.979.2432a2.2269,2.2269,0,0,0-.93.42,1.0028,1.0028,0,0,0-.393.834.9773.9773,0,0,0,.3349.7724,1.2465,1.2465,0,0,0,.8545.294,2.1623,2.1623,0,0,0,1.1279-.3379A3.3212,3.3212,0,0,0,187.915,614.5332Z"/><path class="cls-11" d="M197.4922,609.7139l-.4307,1.0254a3.1316,3.1316,0,0,0-1.2168-.3077,1.7712,1.7712,0,0,0-.9229.2706,2.9525,2.9525,0,0,0-.8305.7724,2.7717,2.7717,0,0,0-.3794.5635v4.6074h-1.06v-7.123h1.06v1.4423a2.5255,2.5255,0,0,1,2.2148-1.6132A3.6,3.6,0,0,1,197.4922,609.7139Z"/><path class="cls-11" d="M205.7841,616.6455h-1.0664v-4.5664a2.42,2.42,0,0,0-.3042-1.3769,1.0894,1.0894,0,0,0-.9536-.4278,3.0626,3.0626,0,0,0-2.0986,1.2168v5.1543h-1.0664v-7.123h1.0664v1.0459a3.337,3.337,0,0,1,2.42-1.2168q2.0032,0,2.0029,2.42Z"/><path class="cls-11" d="M214.1582,616.6455h-1.0664V615.62a2.5279,2.5279,0,0,1-.94.8682,2.5966,2.5966,0,0,1-1.2885.3418,2.2016,2.2016,0,0,1-1.9346-1.09,4.9693,4.9693,0,0,1-.711-2.7656,4.3216,4.3216,0,0,1,.7417-2.5937,2.3084,2.3084,0,0,1,1.9654-1.0293,2.5807,2.5807,0,0,1,2.167,1.0937V607h1.0664Zm-1.0664-2.1807v-2.96a2.1869,2.1869,0,0,0-1.8457-1.2305,1.588,1.588,0,0,0-1.3946.7832,3.542,3.542,0,0,0-.5127,1.9785,3.9035,3.9035,0,0,0,.482,2.0342,1.48,1.48,0,0,0,1.3227.8028,1.7094,1.7094,0,0,0,.8135-.2188,2.61,2.61,0,0,0,.7725-.6562A1.6569,1.6569,0,0,0,213.0918,614.4648Z"/><path class="cls-11" d="M222.7646,616.6455h-1.06a4.1112,4.1112,0,0,1-.13-1.1484,2.8461,2.8461,0,0,1-2.4746,1.333,1.9878,1.9878,0,0,1-1.398-.5635,1.8971,1.8971,0,0,1-.605-1.4531,1.9744,1.9744,0,0,1,.2119-.93,1.8629,1.8629,0,0,1,.6221-.68,3.3346,3.3346,0,0,1,.9981-.4375,7.4961,7.4961,0,0,1,1.3945-.2227l1.1963-.0957v-.3418q0-1.831-1.709-1.832a3.9307,3.9307,0,0,0-1.022.1748,5.272,5.272,0,0,0-1.063.4131l-.28-.7656a5.9988,5.9988,0,0,1,2.707-.7451q2.4338,0,2.4336,2.5771v3.0625A6.9607,6.9607,0,0,0,222.7646,616.6455Zm-1.2441-2.1123v-1.292q-1.4421.13-1.979.2432a2.2269,2.2269,0,0,0-.93.42,1.0029,1.0029,0,0,0-.3931.834.977.977,0,0,0,.335.7724,1.2464,1.2464,0,0,0,.8545.294,2.1623,2.1623,0,0,0,1.1279-.3379A3.3224,3.3224,0,0,0,221.5205,614.5332Z"/><path class="cls-11" d="M231.5488,616.6455h-1.0664V611.97q0-1.6948-.6289-1.6953-.3216,0-.7075.585a3.6847,3.6847,0,0,0-.3863.6455v5.1406H227.7V611.97q0-1.6948-.6358-1.6953-.3141,0-.7007.585a3.6875,3.6875,0,0,0-.3862.6455v5.1406h-1.0664v-7.123h1.0254v1.0732a2.9139,2.9139,0,0,1,.7143-.9053,1.3055,1.3055,0,0,1,.8238-.3388,1.0717,1.0717,0,0,1,.7724.3388,1.8042,1.8042,0,0,1,.4717.9053,2.8929,2.8929,0,0,1,.7178-.9053,1.3106,1.3106,0,0,1,.82-.3388q1.2919,0,1.292,2.3105Z"/><path class="cls-11" d="M212.8574,690.6455h-1.1758l-1.0664-3.3769H207.45l-1.08,3.3769H205.208L208.3593,681h1.3467Zm-2.5635-4.3545-1.2646-3.9922-1.2578,3.9922Z"/><path class="cls-11" d="M220.7392,690.6455h-1.0664V685.97q0-1.6948-.6289-1.6953-.3215,0-.7075.585a3.6875,3.6875,0,0,0-.3862.6455v5.1406h-1.06V685.97q0-1.6948-.6357-1.6953-.3142,0-.7007.585a3.6847,3.6847,0,0,0-.3863.6455v5.1406h-1.0664v-7.123h1.0254v1.0732a2.9127,2.9127,0,0,1,.7144-.9053,1.3055,1.3055,0,0,1,.8237-.3388,1.0721,1.0721,0,0,1,.7725.3388,1.8048,1.8048,0,0,1,.4716.9053,2.8929,2.8929,0,0,1,.7178-.9053,1.3108,1.3108,0,0,1,.82-.3388q1.2921,0,1.292,2.3105Z"/><path class="cls-11" d="M227.8349,684.541a5.4416,5.4416,0,0,0-1.6884-.2939,2.7552,2.7552,0,0,0-1.3741.291.8717.8717,0,0,0-.5058.7754.7322.7322,0,0,0,.2324.5371,2.2925,2.2925,0,0,0,.93.4267l1.0185.294a4.5074,4.5074,0,0,1,1.1485.4756,1.8836,1.8836,0,0,1,.6665.67,1.8241,1.8241,0,0,1,.2221.9121,1.8586,1.8586,0,0,1-.8544,1.61,3.7419,3.7419,0,0,1-2.1739.5908,5.1545,5.1545,0,0,1-2.167-.3965l.2051-.9229a4.4249,4.4249,0,0,0,1.9209.4239,2.8043,2.8043,0,0,0,1.4458-.3311.9946.9946,0,0,0,.5571-.8789.9292.9292,0,0,0-.2768-.6592,3.3438,3.3438,0,0,0-1.3023-.6054q-.8268-.252-1.2168-.3789a2.56,2.56,0,0,1-.7246-.3731,1.7069,1.7069,0,0,1,.1231-2.8164,3.792,3.792,0,0,1,2.14-.54,7.2038,7.2038,0,0,1,1.9141.2939Z"/><path class="cls-11" d="M237.05,690.3242a5.0407,5.0407,0,0,1-2.1123.4922q-1.9073,0-1.9073-2.0166v-4.3545h-1.3671v-.9228H233.03v-1.9483h1.0391v1.9483h2.42v.9228h-2.42V688.52a1.5763,1.5763,0,0,0,.2871,1.0088.9445.9445,0,0,0,.7793.3584,4.1333,4.1333,0,0,0,1.7295-.39Z"/><path class="cls-11" d="M245.5947,687.1182H240.707a2.8862,2.8862,0,0,0,.7007,1.9961,2.214,2.214,0,0,0,1.7192.7861,6.2447,6.2447,0,0,0,2.003-.3486l.1845.8545a5.3182,5.3182,0,0,1-2.2011.4238,3.3666,3.3666,0,0,1-2.5567-1.0186,3.8178,3.8178,0,0,1-.9707-2.748,3.99,3.99,0,0,1,.8716-2.7031,2.8377,2.8377,0,0,1,2.2524-1.0088,2.6348,2.6348,0,0,1,2.0576.9365,3.6336,3.6336,0,0,1,.8272,2.4951Zm-1.1621-.8682a2.01,2.01,0,0,0-.52-1.4043,1.5456,1.5456,0,0,0-1.1622-.5713,1.8534,1.8534,0,0,0-1.3706.5469,2.1654,2.1654,0,0,0-.6049,1.4287Z"/><path class="cls-11" d="M253.8935,683.7139l-.4306,1.0254a3.1316,3.1316,0,0,0-1.2168-.3077,1.7712,1.7712,0,0,0-.9229.2706,2.9528,2.9528,0,0,0-.8306.7724,2.7735,2.7735,0,0,0-.3793.5635v4.6074h-1.06v-7.123h1.06v1.4423a2.5255,2.5255,0,0,1,2.2148-1.6132A3.5988,3.5988,0,0,1,253.8935,683.7139Z"/><path class="cls-11" d="M262.1582,690.6455h-1.0664V689.62a2.5279,2.5279,0,0,1-.94.8682,2.5966,2.5966,0,0,1-1.2885.3418,2.2016,2.2016,0,0,1-1.9346-1.09,4.9693,4.9693,0,0,1-.711-2.7656,4.3216,4.3216,0,0,1,.7417-2.5937,2.3084,2.3084,0,0,1,1.9654-1.0293,2.5807,2.5807,0,0,1,2.167,1.0937V681h1.0664Zm-1.0664-2.1807v-2.96a2.1869,2.1869,0,0,0-1.8457-1.2305,1.588,1.588,0,0,0-1.3946.7832,3.542,3.542,0,0,0-.5127,1.9785,3.9035,3.9035,0,0,0,.482,2.0342,1.48,1.48,0,0,0,1.3227.8028,1.7094,1.7094,0,0,0,.8135-.2188,2.61,2.61,0,0,0,.7725-.6562A1.6569,1.6569,0,0,0,261.0918,688.4648Z"/><path class="cls-11" d="M270.7646,690.6455h-1.06a4.1112,4.1112,0,0,1-.13-1.1484,2.8461,2.8461,0,0,1-2.4746,1.333,1.9878,1.9878,0,0,1-1.398-.5635,1.8971,1.8971,0,0,1-.605-1.4531,1.9744,1.9744,0,0,1,.2119-.93,1.8629,1.8629,0,0,1,.6221-.68,3.3346,3.3346,0,0,1,.9981-.4375,7.4961,7.4961,0,0,1,1.3945-.2227l1.1963-.0957v-.3418q0-1.831-1.709-1.832a3.9307,3.9307,0,0,0-1.022.1748,5.272,5.272,0,0,0-1.063.4131l-.28-.7656a5.9988,5.9988,0,0,1,2.707-.7451q2.4337,0,2.4336,2.5771v3.0625A6.9607,6.9607,0,0,0,270.7646,690.6455Zm-1.2441-2.1123v-1.292q-1.4421.13-1.979.2432a2.2269,2.2269,0,0,0-.93.42,1.0029,1.0029,0,0,0-.3931.834.977.977,0,0,0,.335.7724,1.2464,1.2464,0,0,0,.8545.294,2.1623,2.1623,0,0,0,1.1279-.3379A3.3224,3.3224,0,0,0,269.5205,688.5332Z"/><path class="cls-11" d="M279.5488,690.6455h-1.0664V685.97q0-1.6948-.6289-1.6953-.3216,0-.7075.585a3.6847,3.6847,0,0,0-.3863.6455v5.1406H275.7V685.97q0-1.6948-.6358-1.6953-.3141,0-.7007.585a3.6875,3.6875,0,0,0-.3862.6455v5.1406h-1.0664v-7.123h1.0254v1.0732a2.9139,2.9139,0,0,1,.7143-.9053,1.3055,1.3055,0,0,1,.8238-.3388,1.0717,1.0717,0,0,1,.7724.3388,1.8042,1.8042,0,0,1,.4717.9053,2.8929,2.8929,0,0,1,.7178-.9053,1.3106,1.3106,0,0,1,.82-.3388q1.292,0,1.292,2.3105Z"/><path class="cls-11" d="M307.247,971h1.9a3.8553,3.8553,0,0,1,3.0352,1.2891,5.1448,5.1448,0,0,1,1.1416,3.5371,5.0693,5.0693,0,0,1-1.1587,3.5586,3.8527,3.8527,0,0,1-2.97,1.2607H307.247Zm1.1211,8.668h.793a2.6146,2.6146,0,0,0,2.1738-1.0186,5.3663,5.3663,0,0,0-.0034-5.6426,2.6075,2.6075,0,0,0-2.17-1.0293h-.793Z"/><path class="cls-11" d="M321.3906,977.1182h-4.8877a2.8862,2.8862,0,0,0,.7007,1.9961,2.214,2.214,0,0,0,1.7192.7861,6.2447,6.2447,0,0,0,2.003-.3486l.1845.8545a5.3183,5.3183,0,0,1-2.2012.4238,3.3665,3.3665,0,0,1-2.5566-1.0186,3.8178,3.8178,0,0,1-.9707-2.748,3.99,3.99,0,0,1,.8716-2.7031,2.8377,2.8377,0,0,1,2.2524-1.0088,2.6348,2.6348,0,0,1,2.0576.9365,3.6336,3.6336,0,0,1,.8272,2.4951Zm-1.1621-.8682a2.01,2.01,0,0,0-.5195-1.4043,1.5456,1.5456,0,0,0-1.1622-.5713,1.8534,1.8534,0,0,0-1.3706.5469,2.1654,2.1654,0,0,0-.6049,1.4287Z"/><path class="cls-11" d="M338.33,980.6455h-1.08V972.374l-1.4561,3.958h-1.06l-1.456-3.958v8.2715h-1.08V971h1.4561l1.6132,4.3955L336.874,971h1.456Z"/><path class="cls-11" d="M346.5947,977.1182H341.707a2.8862,2.8862,0,0,0,.7007,1.9961,2.214,2.214,0,0,0,1.7192.7861,6.2447,6.2447,0,0,0,2.003-.3486l.1845.8545a5.3182,5.3182,0,0,1-2.2011.4238,3.3666,3.3666,0,0,1-2.5567-1.0186,3.8178,3.8178,0,0,1-.9707-2.748,3.99,3.99,0,0,1,.8716-2.7031,2.8377,2.8377,0,0,1,2.2524-1.0088,2.6348,2.6348,0,0,1,2.0576.9365,3.6336,3.6336,0,0,1,.8272,2.4951Zm-1.1621-.8682a2.01,2.01,0,0,0-.5195-1.4043,1.5456,1.5456,0,0,0-1.1622-.5713,1.8534,1.8534,0,0,0-1.3706.5469,2.1654,2.1654,0,0,0-.6049,1.4287Z"/><path class="cls-11" d="M354.9961,977.1182h-4.8877a2.8862,2.8862,0,0,0,.7007,1.9961,2.2138,2.2138,0,0,0,1.7192.7861,6.2442,6.2442,0,0,0,2.0029-.3486l.1846.8545a5.3183,5.3183,0,0,1-2.2012.4238,3.3665,3.3665,0,0,1-2.5566-1.0186,3.8178,3.8178,0,0,1-.9707-2.748,3.99,3.99,0,0,1,.8716-2.7031,2.8377,2.8377,0,0,1,2.2524-1.0088,2.6349,2.6349,0,0,1,2.0576.9365,3.6336,3.6336,0,0,1,.8272,2.4951Zm-1.1621-.8682a2.0091,2.0091,0,0,0-.52-1.4043,1.5456,1.5456,0,0,0-1.1621-.5713,1.8532,1.8532,0,0,0-1.3706.5469,2.1655,2.1655,0,0,0-.605,1.4287Z"/><path class="cls-11" d="M363.2949,973.7139l-.4307,1.0254a3.1312,3.1312,0,0,0-1.2168-.3077,1.7711,1.7711,0,0,0-.9228.2706,2.9514,2.9514,0,0,0-.8306.7724,2.7768,2.7768,0,0,0-.3794.5635v4.6074h-1.06v-7.123h1.06v1.4423a2.5256,2.5256,0,0,1,2.2149-1.6132A3.5991,3.5991,0,0,1,363.2949,973.7139Z"/><path class="cls-11" d="M371.5869,980.6455h-1.0664v-4.5664a2.4206,2.4206,0,0,0-.3042-1.3769,1.09,1.09,0,0,0-.9536-.4278,3.0626,3.0626,0,0,0-2.0987,1.2168v5.1543h-1.0664v-7.123h1.0664v1.0459a3.3372,3.3372,0,0,1,2.42-1.2168q2.0031,0,2.0029,2.42Z"/></g></g></svg>